<mxfile host="Electron" modified="2024-01-10T17:01:45.507Z" agent="Mozilla/5.0 (Windows NT 10.0; Win64; x64) AppleWebKit/537.36 (KHTML, like Gecko) draw.io/22.1.18 Chrome/120.0.6099.199 Electron/28.1.2 Safari/537.36" etag="ckddXpE7LMVmjUs5yTbS" version="22.1.18" type="device" pages="2">
  <diagram name="OPTION 1" id="F2uzgsta0eLpkLULIARU">
    <mxGraphModel dx="3191" dy="1840" grid="1" gridSize="10" guides="1" tooltips="1" connect="1" arrows="1" fold="1" page="1" pageScale="1" pageWidth="1200" pageHeight="1920" math="0" shadow="0">
      <root>
        <mxCell id="0" />
        <mxCell id="1" parent="0" />
        <mxCell id="zXpo8NXEt-LF2hCCX_fS-25" value="" style="rounded=0;whiteSpace=wrap;html=1;" vertex="1" parent="1">
          <mxGeometry x="779" y="30" width="100" height="40" as="geometry" />
        </mxCell>
        <mxCell id="zXpo8NXEt-LF2hCCX_fS-1" value="ANY MISA APPLICATION" style="shape=umlLifeline;perimeter=lifelinePerimeter;whiteSpace=wrap;html=1;container=1;dropTarget=0;collapsible=0;recursiveResize=0;outlineConnect=0;portConstraint=eastwest;newEdgeStyle={&quot;curved&quot;:0,&quot;rounded&quot;:0};" vertex="1" parent="1">
          <mxGeometry x="80" y="40" width="100" height="1080" as="geometry" />
        </mxCell>
        <mxCell id="zXpo8NXEt-LF2hCCX_fS-11" value="" style="html=1;points=[[0,0,0,0,5],[0,1,0,0,-5],[1,0,0,0,5],[1,1,0,0,-5]];perimeter=orthogonalPerimeter;outlineConnect=0;targetShapes=umlLifeline;portConstraint=eastwest;newEdgeStyle={&quot;curved&quot;:0,&quot;rounded&quot;:0};" vertex="1" parent="zXpo8NXEt-LF2hCCX_fS-1">
          <mxGeometry x="45" y="160" width="10" height="160" as="geometry" />
        </mxCell>
        <mxCell id="zXpo8NXEt-LF2hCCX_fS-15" value="" style="html=1;points=[[0,0,0,0,5],[0,1,0,0,-5],[1,0,0,0,5],[1,1,0,0,-5]];perimeter=orthogonalPerimeter;outlineConnect=0;targetShapes=umlLifeline;portConstraint=eastwest;newEdgeStyle={&quot;curved&quot;:0,&quot;rounded&quot;:0};" vertex="1" parent="zXpo8NXEt-LF2hCCX_fS-1">
          <mxGeometry x="50" y="180" width="10" height="20" as="geometry" />
        </mxCell>
        <mxCell id="zXpo8NXEt-LF2hCCX_fS-16" value="Self check license status of status/tenant" style="html=1;align=left;spacingLeft=2;endArrow=block;rounded=0;edgeStyle=orthogonalEdgeStyle;curved=0;rounded=0;" edge="1" target="zXpo8NXEt-LF2hCCX_fS-15" parent="zXpo8NXEt-LF2hCCX_fS-1">
          <mxGeometry relative="1" as="geometry">
            <mxPoint x="55" y="170.02127659574467" as="sourcePoint" />
            <Array as="points">
              <mxPoint x="80" y="170" />
              <mxPoint x="80" y="180" />
            </Array>
          </mxGeometry>
        </mxCell>
        <mxCell id="zXpo8NXEt-LF2hCCX_fS-63" value="" style="html=1;points=[[0,0,0,0,5],[0,1,0,0,-5],[1,0,0,0,5],[1,1,0,0,-5]];perimeter=orthogonalPerimeter;outlineConnect=0;targetShapes=umlLifeline;portConstraint=eastwest;newEdgeStyle={&quot;curved&quot;:0,&quot;rounded&quot;:0};" vertex="1" parent="zXpo8NXEt-LF2hCCX_fS-1">
          <mxGeometry x="50" y="229.98000000000002" width="10" height="20" as="geometry" />
        </mxCell>
        <mxCell id="zXpo8NXEt-LF2hCCX_fS-64" value="Get all MISAIDs having access to tenants/taxcode" style="html=1;align=left;spacingLeft=2;endArrow=block;rounded=0;edgeStyle=orthogonalEdgeStyle;curved=0;rounded=0;" edge="1" parent="zXpo8NXEt-LF2hCCX_fS-1" target="zXpo8NXEt-LF2hCCX_fS-63">
          <mxGeometry relative="1" as="geometry">
            <mxPoint x="55" y="220.00127659574468" as="sourcePoint" />
            <Array as="points">
              <mxPoint x="80" y="219.98000000000002" />
              <mxPoint x="80" y="229.98000000000002" />
            </Array>
          </mxGeometry>
        </mxCell>
        <mxCell id="zXpo8NXEt-LF2hCCX_fS-3" value="MISA LICENSE NOTIFYING CENTER" style="shape=umlLifeline;perimeter=lifelinePerimeter;whiteSpace=wrap;html=1;container=1;dropTarget=0;collapsible=0;recursiveResize=0;outlineConnect=0;portConstraint=eastwest;newEdgeStyle={&quot;curved&quot;:0,&quot;rounded&quot;:0};fillColor=#008a00;fontColor=#ffffff;strokeColor=#005700;" vertex="1" parent="1">
          <mxGeometry x="280" y="40" width="140" height="1080" as="geometry" />
        </mxCell>
        <mxCell id="zXpo8NXEt-LF2hCCX_fS-17" value="" style="html=1;points=[[0,0,0,0,5],[0,1,0,0,-5],[1,0,0,0,5],[1,1,0,0,-5]];perimeter=orthogonalPerimeter;outlineConnect=0;targetShapes=umlLifeline;portConstraint=eastwest;newEdgeStyle={&quot;curved&quot;:0,&quot;rounded&quot;:0};" vertex="1" parent="zXpo8NXEt-LF2hCCX_fS-3">
          <mxGeometry x="65" y="80" width="10" height="20" as="geometry" />
        </mxCell>
        <mxCell id="zXpo8NXEt-LF2hCCX_fS-33" value="" style="html=1;points=[[0,0,0,0,5],[0,1,0,0,-5],[1,0,0,0,5],[1,1,0,0,-5]];perimeter=orthogonalPerimeter;outlineConnect=0;targetShapes=umlLifeline;portConstraint=eastwest;newEdgeStyle={&quot;curved&quot;:0,&quot;rounded&quot;:0};" vertex="1" parent="zXpo8NXEt-LF2hCCX_fS-3">
          <mxGeometry x="65" y="375" width="10" height="191" as="geometry" />
        </mxCell>
        <mxCell id="zXpo8NXEt-LF2hCCX_fS-37" value="" style="html=1;points=[[0,0,0,0,5],[0,1,0,0,-5],[1,0,0,0,5],[1,1,0,0,-5]];perimeter=orthogonalPerimeter;outlineConnect=0;targetShapes=umlLifeline;portConstraint=eastwest;newEdgeStyle={&quot;curved&quot;:0,&quot;rounded&quot;:0};" vertex="1" parent="zXpo8NXEt-LF2hCCX_fS-3">
          <mxGeometry x="70" y="425" width="10" height="20" as="geometry" />
        </mxCell>
        <mxCell id="zXpo8NXEt-LF2hCCX_fS-38" value="Get owners of license" style="html=1;align=left;spacingLeft=2;endArrow=block;rounded=0;edgeStyle=orthogonalEdgeStyle;curved=0;rounded=0;" edge="1" target="zXpo8NXEt-LF2hCCX_fS-37" parent="zXpo8NXEt-LF2hCCX_fS-3">
          <mxGeometry relative="1" as="geometry">
            <mxPoint x="75" y="415" as="sourcePoint" />
            <Array as="points">
              <mxPoint x="105" y="415" />
              <mxPoint x="105" y="425" />
            </Array>
          </mxGeometry>
        </mxCell>
        <mxCell id="zXpo8NXEt-LF2hCCX_fS-39" value="" style="html=1;points=[[0,0,0,0,5],[0,1,0,0,-5],[1,0,0,0,5],[1,1,0,0,-5]];perimeter=orthogonalPerimeter;outlineConnect=0;targetShapes=umlLifeline;portConstraint=eastwest;newEdgeStyle={&quot;curved&quot;:0,&quot;rounded&quot;:0};" vertex="1" parent="zXpo8NXEt-LF2hCCX_fS-3">
          <mxGeometry x="70" y="466" width="10" height="20" as="geometry" />
        </mxCell>
        <mxCell id="zXpo8NXEt-LF2hCCX_fS-40" value="Send license notifying emails" style="html=1;align=left;spacingLeft=2;endArrow=block;rounded=0;edgeStyle=orthogonalEdgeStyle;curved=0;rounded=0;" edge="1" parent="zXpo8NXEt-LF2hCCX_fS-3" target="zXpo8NXEt-LF2hCCX_fS-39" source="zXpo8NXEt-LF2hCCX_fS-33">
          <mxGeometry x="0.004" relative="1" as="geometry">
            <mxPoint x="75" y="456" as="sourcePoint" />
            <Array as="points">
              <mxPoint x="105" y="456" />
              <mxPoint x="105" y="466" />
            </Array>
            <mxPoint as="offset" />
          </mxGeometry>
        </mxCell>
        <mxCell id="zXpo8NXEt-LF2hCCX_fS-41" value="" style="html=1;points=[[0,0,0,0,5],[0,1,0,0,-5],[1,0,0,0,5],[1,1,0,0,-5]];perimeter=orthogonalPerimeter;outlineConnect=0;targetShapes=umlLifeline;portConstraint=eastwest;newEdgeStyle={&quot;curved&quot;:0,&quot;rounded&quot;:0};" vertex="1" parent="zXpo8NXEt-LF2hCCX_fS-3">
          <mxGeometry x="70" y="506" width="10" height="20" as="geometry" />
        </mxCell>
        <mxCell id="zXpo8NXEt-LF2hCCX_fS-42" value="Add missing informations to message" style="html=1;align=left;spacingLeft=2;endArrow=block;rounded=0;edgeStyle=orthogonalEdgeStyle;curved=0;rounded=0;" edge="1" target="zXpo8NXEt-LF2hCCX_fS-41" parent="zXpo8NXEt-LF2hCCX_fS-3">
          <mxGeometry relative="1" as="geometry">
            <mxPoint x="75" y="496" as="sourcePoint" />
            <Array as="points">
              <mxPoint x="105" y="496" />
              <mxPoint x="105" y="506" />
            </Array>
          </mxGeometry>
        </mxCell>
        <mxCell id="zXpo8NXEt-LF2hCCX_fS-5" value="MISA Sync Service" style="shape=umlLifeline;whiteSpace=wrap;html=1;container=1;dropTarget=0;collapsible=0;recursiveResize=0;outlineConnect=0;portConstraint=eastwest;newEdgeStyle={&quot;curved&quot;:0,&quot;rounded&quot;:0};points=[[0,0,0,0,5],[0,1,0,0,-5],[1,0,0,0,5],[1,1,0,0,-5]];perimeter=rectanglePerimeter;targetShapes=umlLifeline;participant=label;" vertex="1" parent="1">
          <mxGeometry x="569" y="40" width="100" height="1080" as="geometry" />
        </mxCell>
        <mxCell id="zXpo8NXEt-LF2hCCX_fS-9" value="" style="html=1;points=[[0,0,0,0,5],[0,1,0,0,-5],[1,0,0,0,5],[1,1,0,0,-5]];perimeter=orthogonalPerimeter;outlineConnect=0;targetShapes=umlLifeline;portConstraint=eastwest;newEdgeStyle={&quot;curved&quot;:0,&quot;rounded&quot;:0};" vertex="1" parent="zXpo8NXEt-LF2hCCX_fS-5">
          <mxGeometry x="45" y="283" width="10" height="20" as="geometry" />
        </mxCell>
        <mxCell id="zXpo8NXEt-LF2hCCX_fS-18" value="" style="html=1;points=[[0,0,0,0,5],[0,1,0,0,-5],[1,0,0,0,5],[1,1,0,0,-5]];perimeter=orthogonalPerimeter;outlineConnect=0;targetShapes=umlLifeline;portConstraint=eastwest;newEdgeStyle={&quot;curved&quot;:0,&quot;rounded&quot;:0};" vertex="1" parent="zXpo8NXEt-LF2hCCX_fS-5">
          <mxGeometry x="45" y="80" width="10" height="20" as="geometry" />
        </mxCell>
        <mxCell id="zXpo8NXEt-LF2hCCX_fS-27" value="" style="html=1;points=[[0,0,0,0,5],[0,1,0,0,-5],[1,0,0,0,5],[1,1,0,0,-5]];perimeter=orthogonalPerimeter;outlineConnect=0;targetShapes=umlLifeline;portConstraint=eastwest;newEdgeStyle={&quot;curved&quot;:0,&quot;rounded&quot;:0};" vertex="1" parent="zXpo8NXEt-LF2hCCX_fS-5">
          <mxGeometry x="45" y="120" width="10" height="20" as="geometry" />
        </mxCell>
        <mxCell id="zXpo8NXEt-LF2hCCX_fS-34" value="" style="html=1;points=[[0,0,0,0,5],[0,1,0,0,-5],[1,0,0,0,5],[1,1,0,0,-5]];perimeter=orthogonalPerimeter;outlineConnect=0;targetShapes=umlLifeline;portConstraint=eastwest;newEdgeStyle={&quot;curved&quot;:0,&quot;rounded&quot;:0};" vertex="1" parent="zXpo8NXEt-LF2hCCX_fS-5">
          <mxGeometry x="45" y="375" width="10" height="20" as="geometry" />
        </mxCell>
        <mxCell id="zXpo8NXEt-LF2hCCX_fS-43" value="" style="html=1;points=[[0,0,0,0,5],[0,1,0,0,-5],[1,0,0,0,5],[1,1,0,0,-5]];perimeter=orthogonalPerimeter;outlineConnect=0;targetShapes=umlLifeline;portConstraint=eastwest;newEdgeStyle={&quot;curved&quot;:0,&quot;rounded&quot;:0};" vertex="1" parent="zXpo8NXEt-LF2hCCX_fS-5">
          <mxGeometry x="45" y="547" width="10" height="20" as="geometry" />
        </mxCell>
        <mxCell id="zXpo8NXEt-LF2hCCX_fS-46" value="" style="html=1;points=[[0,0,0,0,5],[0,1,0,0,-5],[1,0,0,0,5],[1,1,0,0,-5]];perimeter=orthogonalPerimeter;outlineConnect=0;targetShapes=umlLifeline;portConstraint=eastwest;newEdgeStyle={&quot;curved&quot;:0,&quot;rounded&quot;:0};" vertex="1" parent="zXpo8NXEt-LF2hCCX_fS-5">
          <mxGeometry x="46" y="596" width="10" height="20" as="geometry" />
        </mxCell>
        <mxCell id="zXpo8NXEt-LF2hCCX_fS-20" value="" style="html=1;verticalAlign=bottom;endArrow=open;dashed=1;endSize=8;curved=0;rounded=0;" edge="1" source="zXpo8NXEt-LF2hCCX_fS-18" parent="1">
          <mxGeometry relative="1" as="geometry">
            <mxPoint x="355" y="140" as="targetPoint" />
            <mxPoint x="565" y="140" as="sourcePoint" />
          </mxGeometry>
        </mxCell>
        <mxCell id="zXpo8NXEt-LF2hCCX_fS-19" value="Subscribe &lt;b&gt;TOPIC-1&lt;/b&gt;" style="html=1;verticalAlign=bottom;endArrow=block;curved=0;rounded=0;" edge="1" target="zXpo8NXEt-LF2hCCX_fS-18" parent="1" source="zXpo8NXEt-LF2hCCX_fS-17">
          <mxGeometry relative="1" as="geometry">
            <mxPoint x="495" y="125" as="sourcePoint" />
            <Array as="points">
              <mxPoint x="460" y="120" />
            </Array>
          </mxGeometry>
        </mxCell>
        <mxCell id="zXpo8NXEt-LF2hCCX_fS-21" value="ALL MISA APPLICATIONS" style="shape=umlLifeline;perimeter=lifelinePerimeter;whiteSpace=wrap;html=1;container=1;dropTarget=0;collapsible=0;recursiveResize=0;outlineConnect=0;portConstraint=eastwest;newEdgeStyle={&quot;curved&quot;:0,&quot;rounded&quot;:0};" vertex="1" parent="1">
          <mxGeometry x="769" y="40" width="100" height="1080" as="geometry" />
        </mxCell>
        <mxCell id="zXpo8NXEt-LF2hCCX_fS-26" value="" style="html=1;points=[[0,0,0,0,5],[0,1,0,0,-5],[1,0,0,0,5],[1,1,0,0,-5]];perimeter=orthogonalPerimeter;outlineConnect=0;targetShapes=umlLifeline;portConstraint=eastwest;newEdgeStyle={&quot;curved&quot;:0,&quot;rounded&quot;:0};" vertex="1" parent="zXpo8NXEt-LF2hCCX_fS-21">
          <mxGeometry x="45" y="120" width="10" height="20" as="geometry" />
        </mxCell>
        <mxCell id="zXpo8NXEt-LF2hCCX_fS-45" value="" style="html=1;points=[[0,0,0,0,5],[0,1,0,0,-5],[1,0,0,0,5],[1,1,0,0,-5]];perimeter=orthogonalPerimeter;outlineConnect=0;targetShapes=umlLifeline;portConstraint=eastwest;newEdgeStyle={&quot;curved&quot;:0,&quot;rounded&quot;:0};" vertex="1" parent="zXpo8NXEt-LF2hCCX_fS-21">
          <mxGeometry x="46" y="586" width="10" height="450" as="geometry" />
        </mxCell>
        <mxCell id="zXpo8NXEt-LF2hCCX_fS-49" value="" style="html=1;points=[[0,0,0,0,5],[0,1,0,0,-5],[1,0,0,0,5],[1,1,0,0,-5]];perimeter=orthogonalPerimeter;outlineConnect=0;targetShapes=umlLifeline;portConstraint=eastwest;newEdgeStyle={&quot;curved&quot;:0,&quot;rounded&quot;:0};" vertex="1" parent="zXpo8NXEt-LF2hCCX_fS-21">
          <mxGeometry x="51" y="773" width="10" height="20" as="geometry" />
        </mxCell>
        <mxCell id="zXpo8NXEt-LF2hCCX_fS-50" value="Send notification to all MISAIDs from message&lt;br&gt;of taxcode/tenant" style="html=1;align=left;spacingLeft=2;endArrow=block;rounded=0;edgeStyle=orthogonalEdgeStyle;curved=0;rounded=0;" edge="1" target="zXpo8NXEt-LF2hCCX_fS-49" parent="zXpo8NXEt-LF2hCCX_fS-21">
          <mxGeometry x="-0.0021" relative="1" as="geometry">
            <mxPoint x="56" y="763.0000000000002" as="sourcePoint" />
            <Array as="points">
              <mxPoint x="86" y="763" />
              <mxPoint x="86" y="773" />
            </Array>
            <mxPoint as="offset" />
          </mxGeometry>
        </mxCell>
        <mxCell id="zXpo8NXEt-LF2hCCX_fS-54" value="" style="html=1;points=[[0,0,0,0,5],[0,1,0,0,-5],[1,0,0,0,5],[1,1,0,0,-5]];perimeter=orthogonalPerimeter;outlineConnect=0;targetShapes=umlLifeline;portConstraint=eastwest;newEdgeStyle={&quot;curved&quot;:0,&quot;rounded&quot;:0};" vertex="1" parent="zXpo8NXEt-LF2hCCX_fS-21">
          <mxGeometry x="51" y="888" width="10" height="20" as="geometry" />
        </mxCell>
        <mxCell id="zXpo8NXEt-LF2hCCX_fS-55" value="Send notification to all users of taxcode/tenant&lt;br&gt;from message" style="html=1;align=left;spacingLeft=2;endArrow=block;rounded=0;edgeStyle=orthogonalEdgeStyle;curved=0;rounded=0;" edge="1" target="zXpo8NXEt-LF2hCCX_fS-54" parent="zXpo8NXEt-LF2hCCX_fS-21">
          <mxGeometry relative="1" as="geometry">
            <mxPoint x="56" y="878" as="sourcePoint" />
            <Array as="points">
              <mxPoint x="86" y="878" />
              <mxPoint x="86" y="888" />
              <mxPoint x="56" y="888" />
            </Array>
          </mxGeometry>
        </mxCell>
        <mxCell id="zXpo8NXEt-LF2hCCX_fS-61" value="" style="html=1;points=[[0,0,0,0,5],[0,1,0,0,-5],[1,0,0,0,5],[1,1,0,0,-5]];perimeter=orthogonalPerimeter;outlineConnect=0;targetShapes=umlLifeline;portConstraint=eastwest;newEdgeStyle={&quot;curved&quot;:0,&quot;rounded&quot;:0};" vertex="1" parent="zXpo8NXEt-LF2hCCX_fS-21">
          <mxGeometry x="51" y="666" width="10" height="20" as="geometry" />
        </mxCell>
        <mxCell id="zXpo8NXEt-LF2hCCX_fS-62" value="Create custom notification message for Admin and License Owner" style="html=1;align=left;spacingLeft=2;endArrow=block;rounded=0;edgeStyle=orthogonalEdgeStyle;curved=0;rounded=0;" edge="1" parent="zXpo8NXEt-LF2hCCX_fS-21" target="zXpo8NXEt-LF2hCCX_fS-61" source="zXpo8NXEt-LF2hCCX_fS-45">
          <mxGeometry x="-0.0021" relative="1" as="geometry">
            <mxPoint x="56" y="656.0000000000002" as="sourcePoint" />
            <Array as="points">
              <mxPoint x="86" y="656" />
              <mxPoint x="86" y="666" />
            </Array>
            <mxPoint as="offset" />
          </mxGeometry>
        </mxCell>
        <mxCell id="zXpo8NXEt-LF2hCCX_fS-28" value="" style="html=1;verticalAlign=bottom;endArrow=open;dashed=1;endSize=8;curved=0;rounded=0;" edge="1" parent="1" source="zXpo8NXEt-LF2hCCX_fS-27" target="zXpo8NXEt-LF2hCCX_fS-26">
          <mxGeometry relative="1" as="geometry">
            <mxPoint x="544" y="235" as="targetPoint" />
            <Array as="points">
              <mxPoint x="719" y="180" />
            </Array>
          </mxGeometry>
        </mxCell>
        <mxCell id="zXpo8NXEt-LF2hCCX_fS-29" value="Subscribe &lt;b&gt;TOPIC-2&lt;/b&gt;" style="html=1;verticalAlign=bottom;endArrow=block;curved=0;rounded=0;" edge="1" parent="1" source="zXpo8NXEt-LF2hCCX_fS-26" target="zXpo8NXEt-LF2hCCX_fS-27">
          <mxGeometry relative="1" as="geometry">
            <mxPoint x="544" y="165" as="sourcePoint" />
            <Array as="points">
              <mxPoint x="719" y="160" />
            </Array>
          </mxGeometry>
        </mxCell>
        <mxCell id="zXpo8NXEt-LF2hCCX_fS-10" value="send license status to &lt;b&gt;TOPIC-1&lt;/b&gt;" style="html=1;verticalAlign=bottom;startArrow=none;endArrow=block;startSize=8;curved=0;rounded=0;startFill=0;" edge="1" target="zXpo8NXEt-LF2hCCX_fS-9" parent="1">
          <mxGeometry x="-0.0007" relative="1" as="geometry">
            <mxPoint x="135" y="323" as="sourcePoint" />
            <Array as="points">
              <mxPoint x="360" y="323" />
            </Array>
            <mxPoint as="offset" />
          </mxGeometry>
        </mxCell>
        <mxCell id="zXpo8NXEt-LF2hCCX_fS-35" value="Get message from &lt;b&gt;TOPIC-1&lt;/b&gt;" style="html=1;verticalAlign=bottom;endArrow=block;curved=0;rounded=0;" edge="1" target="zXpo8NXEt-LF2hCCX_fS-34" parent="1" source="zXpo8NXEt-LF2hCCX_fS-33">
          <mxGeometry relative="1" as="geometry">
            <mxPoint x="495" y="430" as="sourcePoint" />
            <Array as="points">
              <mxPoint x="470" y="415" />
            </Array>
          </mxGeometry>
        </mxCell>
        <mxCell id="zXpo8NXEt-LF2hCCX_fS-36" value="" style="html=1;verticalAlign=bottom;endArrow=open;dashed=1;endSize=8;curved=0;rounded=0;" edge="1" source="zXpo8NXEt-LF2hCCX_fS-34" parent="1" target="zXpo8NXEt-LF2hCCX_fS-33">
          <mxGeometry relative="1" as="geometry">
            <mxPoint x="355" y="434.8" as="targetPoint" />
            <mxPoint x="565" y="434.8" as="sourcePoint" />
            <Array as="points">
              <mxPoint x="460" y="435" />
            </Array>
          </mxGeometry>
        </mxCell>
        <mxCell id="zXpo8NXEt-LF2hCCX_fS-44" value="send modifed message to &lt;b&gt;TOPIC-2&lt;/b&gt;" style="html=1;verticalAlign=bottom;startArrow=none;endArrow=block;startSize=8;curved=0;rounded=0;startFill=0;" edge="1" parent="1" target="zXpo8NXEt-LF2hCCX_fS-43">
          <mxGeometry x="-0.0007" relative="1" as="geometry">
            <mxPoint x="355" y="587" as="sourcePoint" />
            <Array as="points">
              <mxPoint x="360" y="587" />
            </Array>
            <mxPoint as="offset" />
          </mxGeometry>
        </mxCell>
        <mxCell id="zXpo8NXEt-LF2hCCX_fS-47" value="Get message from &lt;b&gt;TOPIC-2&lt;/b&gt;" style="html=1;verticalAlign=bottom;endArrow=block;curved=0;rounded=0;" edge="1" target="zXpo8NXEt-LF2hCCX_fS-46" parent="1" source="zXpo8NXEt-LF2hCCX_fS-45">
          <mxGeometry relative="1" as="geometry">
            <mxPoint x="695" y="641" as="sourcePoint" />
            <Array as="points">
              <mxPoint x="720" y="636" />
            </Array>
          </mxGeometry>
        </mxCell>
        <mxCell id="zXpo8NXEt-LF2hCCX_fS-48" value="" style="html=1;verticalAlign=bottom;endArrow=open;dashed=1;endSize=8;curved=0;rounded=0;" edge="1" source="zXpo8NXEt-LF2hCCX_fS-46" parent="1" target="zXpo8NXEt-LF2hCCX_fS-45">
          <mxGeometry relative="1" as="geometry">
            <mxPoint x="695" y="711" as="targetPoint" />
            <Array as="points">
              <mxPoint x="720" y="656" />
            </Array>
          </mxGeometry>
        </mxCell>
        <mxCell id="zXpo8NXEt-LF2hCCX_fS-56" value="alt" style="shape=umlFrame;whiteSpace=wrap;html=1;pointerEvents=0;" vertex="1" parent="1">
          <mxGeometry x="720" y="756" width="430" height="100" as="geometry" />
        </mxCell>
        <mxCell id="zXpo8NXEt-LF2hCCX_fS-57" value="alt" style="shape=umlFrame;whiteSpace=wrap;html=1;pointerEvents=0;" vertex="1" parent="1">
          <mxGeometry x="720" y="876" width="430" height="99" as="geometry" />
        </mxCell>
        <mxCell id="zXpo8NXEt-LF2hCCX_fS-58" value="[LICENSE OF ANOTHER APP]" style="text;html=1;align=center;verticalAlign=middle;resizable=0;points=[];autosize=1;strokeColor=none;fillColor=default;" vertex="1" parent="1">
          <mxGeometry x="781" y="757" width="190" height="30" as="geometry" />
        </mxCell>
        <mxCell id="zXpo8NXEt-LF2hCCX_fS-59" value="[LICENSE OF CURRENT APP]" style="text;html=1;align=center;verticalAlign=middle;resizable=0;points=[];autosize=1;strokeColor=none;fillColor=default;" vertex="1" parent="1">
          <mxGeometry x="781" y="877" width="190" height="30" as="geometry" />
        </mxCell>
      </root>
    </mxGraphModel>
  </diagram>
  <diagram id="iLwgTUBTuF9usbweKlWY" name="OPTION 2">
    <mxGraphModel dx="5185" dy="2990" grid="1" gridSize="10" guides="1" tooltips="1" connect="1" arrows="1" fold="1" page="1" pageScale="1" pageWidth="1200" pageHeight="1920" math="0" shadow="0">
      <root>
        <mxCell id="0" />
        <mxCell id="1" parent="0" />
        <mxCell id="92yAruHw1jOLMELrqUtF-1" value="" style="rounded=0;whiteSpace=wrap;html=1;" vertex="1" parent="1">
          <mxGeometry x="979" y="30" width="100" height="40" as="geometry" />
        </mxCell>
        <mxCell id="92yAruHw1jOLMELrqUtF-2" value="MEIVOICE, MEINBOT, WESIGN" style="shape=umlLifeline;perimeter=lifelinePerimeter;whiteSpace=wrap;html=1;container=1;dropTarget=0;collapsible=0;recursiveResize=0;outlineConnect=0;portConstraint=eastwest;newEdgeStyle={&quot;curved&quot;:0,&quot;rounded&quot;:0};" vertex="1" parent="1">
          <mxGeometry x="50" y="40" width="140" height="1730" as="geometry" />
        </mxCell>
        <mxCell id="92yAruHw1jOLMELrqUtF-3" value="" style="html=1;points=[[0,0,0,0,5],[0,1,0,0,-5],[1,0,0,0,5],[1,1,0,0,-5]];perimeter=orthogonalPerimeter;outlineConnect=0;targetShapes=umlLifeline;portConstraint=eastwest;newEdgeStyle={&quot;curved&quot;:0,&quot;rounded&quot;:0};" vertex="1" parent="92yAruHw1jOLMELrqUtF-2">
          <mxGeometry x="65" y="687" width="10" height="131" as="geometry" />
        </mxCell>
        <mxCell id="92yAruHw1jOLMELrqUtF-4" value="" style="html=1;points=[[0,0,0,0,5],[0,1,0,0,-5],[1,0,0,0,5],[1,1,0,0,-5]];perimeter=orthogonalPerimeter;outlineConnect=0;targetShapes=umlLifeline;portConstraint=eastwest;newEdgeStyle={&quot;curved&quot;:0,&quot;rounded&quot;:0};" vertex="1" parent="92yAruHw1jOLMELrqUtF-2">
          <mxGeometry x="70" y="699" width="10" height="20" as="geometry" />
        </mxCell>
        <mxCell id="92yAruHw1jOLMELrqUtF-5" value="Self check usage quota of license by tenant/taxcode" style="html=1;align=left;spacingLeft=2;endArrow=block;rounded=0;edgeStyle=orthogonalEdgeStyle;curved=0;rounded=0;" edge="1" parent="92yAruHw1jOLMELrqUtF-2" target="92yAruHw1jOLMELrqUtF-4" source="92yAruHw1jOLMELrqUtF-3">
          <mxGeometry relative="1" as="geometry">
            <mxPoint x="80" y="689.0212765957447" as="sourcePoint" />
            <Array as="points">
              <mxPoint x="105" y="689" />
              <mxPoint x="105" y="699" />
            </Array>
          </mxGeometry>
        </mxCell>
        <mxCell id="92yAruHw1jOLMELrqUtF-6" value="" style="html=1;points=[[0,0,0,0,5],[0,1,0,0,-5],[1,0,0,0,5],[1,1,0,0,-5]];perimeter=orthogonalPerimeter;outlineConnect=0;targetShapes=umlLifeline;portConstraint=eastwest;newEdgeStyle={&quot;curved&quot;:0,&quot;rounded&quot;:0};" vertex="1" parent="92yAruHw1jOLMELrqUtF-2">
          <mxGeometry x="70" y="748.98" width="10" height="20" as="geometry" />
        </mxCell>
        <mxCell id="92yAruHw1jOLMELrqUtF-7" value="Get all MISAIDs having access to tenants/taxcode" style="html=1;align=left;spacingLeft=2;endArrow=block;rounded=0;edgeStyle=orthogonalEdgeStyle;curved=0;rounded=0;" edge="1" parent="92yAruHw1jOLMELrqUtF-2" target="92yAruHw1jOLMELrqUtF-6" source="92yAruHw1jOLMELrqUtF-3">
          <mxGeometry relative="1" as="geometry">
            <mxPoint x="80" y="739.0012765957447" as="sourcePoint" />
            <Array as="points">
              <mxPoint x="105" y="739" />
              <mxPoint x="105" y="749" />
            </Array>
          </mxGeometry>
        </mxCell>
        <mxCell id="92yAruHw1jOLMELrqUtF-8" value="MISA LICENSE NOTIFYING CENTER" style="shape=umlLifeline;perimeter=lifelinePerimeter;whiteSpace=wrap;html=1;container=1;dropTarget=0;collapsible=0;recursiveResize=0;outlineConnect=0;portConstraint=eastwest;newEdgeStyle={&quot;curved&quot;:0,&quot;rounded&quot;:0};fillColor=#008a00;fontColor=#ffffff;strokeColor=#005700;" vertex="1" parent="1">
          <mxGeometry x="480" y="40" width="140" height="1520" as="geometry" />
        </mxCell>
        <mxCell id="92yAruHw1jOLMELrqUtF-9" value="" style="html=1;points=[[0,0,0,0,5],[0,1,0,0,-5],[1,0,0,0,5],[1,1,0,0,-5]];perimeter=orthogonalPerimeter;outlineConnect=0;targetShapes=umlLifeline;portConstraint=eastwest;newEdgeStyle={&quot;curved&quot;:0,&quot;rounded&quot;:0};" vertex="1" parent="92yAruHw1jOLMELrqUtF-8">
          <mxGeometry x="65" y="80" width="10" height="20" as="geometry" />
        </mxCell>
        <mxCell id="92yAruHw1jOLMELrqUtF-10" value="" style="html=1;points=[[0,0,0,0,5],[0,1,0,0,-5],[1,0,0,0,5],[1,1,0,0,-5]];perimeter=orthogonalPerimeter;outlineConnect=0;targetShapes=umlLifeline;portConstraint=eastwest;newEdgeStyle={&quot;curved&quot;:0,&quot;rounded&quot;:0};" vertex="1" parent="92yAruHw1jOLMELrqUtF-8">
          <mxGeometry x="65" y="883" width="10" height="170" as="geometry" />
        </mxCell>
        <mxCell id="92yAruHw1jOLMELrqUtF-11" value="" style="html=1;points=[[0,0,0,0,5],[0,1,0,0,-5],[1,0,0,0,5],[1,1,0,0,-5]];perimeter=orthogonalPerimeter;outlineConnect=0;targetShapes=umlLifeline;portConstraint=eastwest;newEdgeStyle={&quot;curved&quot;:0,&quot;rounded&quot;:0};" vertex="1" parent="92yAruHw1jOLMELrqUtF-8">
          <mxGeometry x="70" y="940" width="10" height="20" as="geometry" />
        </mxCell>
        <mxCell id="92yAruHw1jOLMELrqUtF-12" value="Get owners of license" style="html=1;align=left;spacingLeft=2;endArrow=block;rounded=0;edgeStyle=orthogonalEdgeStyle;curved=0;rounded=0;" edge="1" parent="92yAruHw1jOLMELrqUtF-8" target="92yAruHw1jOLMELrqUtF-11">
          <mxGeometry relative="1" as="geometry">
            <mxPoint x="75" y="930" as="sourcePoint" />
            <Array as="points">
              <mxPoint x="105" y="930" />
              <mxPoint x="105" y="940" />
            </Array>
          </mxGeometry>
        </mxCell>
        <mxCell id="92yAruHw1jOLMELrqUtF-15" value="" style="html=1;points=[[0,0,0,0,5],[0,1,0,0,-5],[1,0,0,0,5],[1,1,0,0,-5]];perimeter=orthogonalPerimeter;outlineConnect=0;targetShapes=umlLifeline;portConstraint=eastwest;newEdgeStyle={&quot;curved&quot;:0,&quot;rounded&quot;:0};" vertex="1" parent="92yAruHw1jOLMELrqUtF-8">
          <mxGeometry x="70" y="989" width="10" height="20" as="geometry" />
        </mxCell>
        <mxCell id="92yAruHw1jOLMELrqUtF-16" value="Add missing informations to message" style="html=1;align=left;spacingLeft=2;endArrow=block;rounded=0;edgeStyle=orthogonalEdgeStyle;curved=0;rounded=0;" edge="1" parent="92yAruHw1jOLMELrqUtF-8" target="92yAruHw1jOLMELrqUtF-15">
          <mxGeometry relative="1" as="geometry">
            <mxPoint x="75" y="979" as="sourcePoint" />
            <Array as="points">
              <mxPoint x="105" y="979" />
              <mxPoint x="105" y="989" />
            </Array>
          </mxGeometry>
        </mxCell>
        <mxCell id="92yAruHw1jOLMELrqUtF-62" value="" style="html=1;points=[[0,0,0,0,5],[0,1,0,0,-5],[1,0,0,0,5],[1,1,0,0,-5]];perimeter=orthogonalPerimeter;outlineConnect=0;targetShapes=umlLifeline;portConstraint=eastwest;newEdgeStyle={&quot;curved&quot;:0,&quot;rounded&quot;:0};" vertex="1" parent="92yAruHw1jOLMELrqUtF-8">
          <mxGeometry x="65" y="342" width="10" height="248" as="geometry" />
        </mxCell>
        <mxCell id="92yAruHw1jOLMELrqUtF-17" value="MISA Sync Service" style="shape=umlLifeline;whiteSpace=wrap;html=1;container=1;dropTarget=0;collapsible=0;recursiveResize=0;outlineConnect=0;portConstraint=eastwest;newEdgeStyle={&quot;curved&quot;:0,&quot;rounded&quot;:0};points=[[0,0,0,0,5],[0,1,0,0,-5],[1,0,0,0,5],[1,1,0,0,-5]];perimeter=rectanglePerimeter;targetShapes=umlLifeline;participant=label;" vertex="1" parent="1">
          <mxGeometry x="769" y="40" width="100" height="1730" as="geometry" />
        </mxCell>
        <mxCell id="92yAruHw1jOLMELrqUtF-18" value="" style="html=1;points=[[0,0,0,0,5],[0,1,0,0,-5],[1,0,0,0,5],[1,1,0,0,-5]];perimeter=orthogonalPerimeter;outlineConnect=0;targetShapes=umlLifeline;portConstraint=eastwest;newEdgeStyle={&quot;curved&quot;:0,&quot;rounded&quot;:0};" vertex="1" parent="92yAruHw1jOLMELrqUtF-17">
          <mxGeometry x="45" y="798" width="10" height="20" as="geometry" />
        </mxCell>
        <mxCell id="92yAruHw1jOLMELrqUtF-19" value="" style="html=1;points=[[0,0,0,0,5],[0,1,0,0,-5],[1,0,0,0,5],[1,1,0,0,-5]];perimeter=orthogonalPerimeter;outlineConnect=0;targetShapes=umlLifeline;portConstraint=eastwest;newEdgeStyle={&quot;curved&quot;:0,&quot;rounded&quot;:0};" vertex="1" parent="92yAruHw1jOLMELrqUtF-17">
          <mxGeometry x="45" y="80" width="10" height="20" as="geometry" />
        </mxCell>
        <mxCell id="92yAruHw1jOLMELrqUtF-20" value="" style="html=1;points=[[0,0,0,0,5],[0,1,0,0,-5],[1,0,0,0,5],[1,1,0,0,-5]];perimeter=orthogonalPerimeter;outlineConnect=0;targetShapes=umlLifeline;portConstraint=eastwest;newEdgeStyle={&quot;curved&quot;:0,&quot;rounded&quot;:0};" vertex="1" parent="92yAruHw1jOLMELrqUtF-17">
          <mxGeometry x="45" y="120" width="10" height="20" as="geometry" />
        </mxCell>
        <mxCell id="92yAruHw1jOLMELrqUtF-21" value="" style="html=1;points=[[0,0,0,0,5],[0,1,0,0,-5],[1,0,0,0,5],[1,1,0,0,-5]];perimeter=orthogonalPerimeter;outlineConnect=0;targetShapes=umlLifeline;portConstraint=eastwest;newEdgeStyle={&quot;curved&quot;:0,&quot;rounded&quot;:0};" vertex="1" parent="92yAruHw1jOLMELrqUtF-17">
          <mxGeometry x="45" y="883" width="10" height="20" as="geometry" />
        </mxCell>
        <mxCell id="92yAruHw1jOLMELrqUtF-22" value="" style="html=1;points=[[0,0,0,0,5],[0,1,0,0,-5],[1,0,0,0,5],[1,1,0,0,-5]];perimeter=orthogonalPerimeter;outlineConnect=0;targetShapes=umlLifeline;portConstraint=eastwest;newEdgeStyle={&quot;curved&quot;:0,&quot;rounded&quot;:0};" vertex="1" parent="92yAruHw1jOLMELrqUtF-17">
          <mxGeometry x="45" y="1033" width="10" height="20" as="geometry" />
        </mxCell>
        <mxCell id="92yAruHw1jOLMELrqUtF-23" value="" style="html=1;points=[[0,0,0,0,5],[0,1,0,0,-5],[1,0,0,0,5],[1,1,0,0,-5]];perimeter=orthogonalPerimeter;outlineConnect=0;targetShapes=umlLifeline;portConstraint=eastwest;newEdgeStyle={&quot;curved&quot;:0,&quot;rounded&quot;:0};" vertex="1" parent="92yAruHw1jOLMELrqUtF-17">
          <mxGeometry x="46" y="1160" width="10" height="20" as="geometry" />
        </mxCell>
        <mxCell id="92yAruHw1jOLMELrqUtF-55" value="" style="html=1;points=[[0,0,0,0,5],[0,1,0,0,-5],[1,0,0,0,5],[1,1,0,0,-5]];perimeter=orthogonalPerimeter;outlineConnect=0;targetShapes=umlLifeline;portConstraint=eastwest;newEdgeStyle={&quot;curved&quot;:0,&quot;rounded&quot;:0};" vertex="1" parent="92yAruHw1jOLMELrqUtF-17">
          <mxGeometry x="45" y="264" width="10" height="20" as="geometry" />
        </mxCell>
        <mxCell id="92yAruHw1jOLMELrqUtF-67" value="" style="html=1;points=[[0,0,0,0,5],[0,1,0,0,-5],[1,0,0,0,5],[1,1,0,0,-5]];perimeter=orthogonalPerimeter;outlineConnect=0;targetShapes=umlLifeline;portConstraint=eastwest;newEdgeStyle={&quot;curved&quot;:0,&quot;rounded&quot;:0};" vertex="1" parent="92yAruHw1jOLMELrqUtF-17">
          <mxGeometry x="45" y="342" width="10" height="20" as="geometry" />
        </mxCell>
        <mxCell id="92yAruHw1jOLMELrqUtF-68" value="" style="html=1;points=[[0,0,0,0,5],[0,1,0,0,-5],[1,0,0,0,5],[1,1,0,0,-5]];perimeter=orthogonalPerimeter;outlineConnect=0;targetShapes=umlLifeline;portConstraint=eastwest;newEdgeStyle={&quot;curved&quot;:0,&quot;rounded&quot;:0};" vertex="1" parent="92yAruHw1jOLMELrqUtF-17">
          <mxGeometry x="45" y="565" width="10" height="20" as="geometry" />
        </mxCell>
        <mxCell id="92yAruHw1jOLMELrqUtF-24" value="" style="html=1;verticalAlign=bottom;endArrow=open;dashed=1;endSize=8;curved=0;rounded=0;" edge="1" parent="1" source="92yAruHw1jOLMELrqUtF-19">
          <mxGeometry relative="1" as="geometry">
            <mxPoint x="555" y="140" as="targetPoint" />
            <mxPoint x="765" y="140" as="sourcePoint" />
          </mxGeometry>
        </mxCell>
        <mxCell id="92yAruHw1jOLMELrqUtF-25" value="Subscribe &lt;b&gt;TOPIC-1 and TOPIC-2&lt;/b&gt;" style="html=1;verticalAlign=bottom;endArrow=block;curved=0;rounded=0;" edge="1" parent="1" source="92yAruHw1jOLMELrqUtF-9" target="92yAruHw1jOLMELrqUtF-19">
          <mxGeometry relative="1" as="geometry">
            <mxPoint x="695" y="125" as="sourcePoint" />
            <Array as="points">
              <mxPoint x="660" y="120" />
            </Array>
          </mxGeometry>
        </mxCell>
        <mxCell id="92yAruHw1jOLMELrqUtF-26" value="ALL MISA APPLICATIONS" style="shape=umlLifeline;perimeter=lifelinePerimeter;whiteSpace=wrap;html=1;container=1;dropTarget=0;collapsible=0;recursiveResize=0;outlineConnect=0;portConstraint=eastwest;newEdgeStyle={&quot;curved&quot;:0,&quot;rounded&quot;:0};" vertex="1" parent="1">
          <mxGeometry x="969" y="40" width="100" height="1730" as="geometry" />
        </mxCell>
        <mxCell id="92yAruHw1jOLMELrqUtF-27" value="" style="html=1;points=[[0,0,0,0,5],[0,1,0,0,-5],[1,0,0,0,5],[1,1,0,0,-5]];perimeter=orthogonalPerimeter;outlineConnect=0;targetShapes=umlLifeline;portConstraint=eastwest;newEdgeStyle={&quot;curved&quot;:0,&quot;rounded&quot;:0};" vertex="1" parent="92yAruHw1jOLMELrqUtF-26">
          <mxGeometry x="45" y="120" width="10" height="20" as="geometry" />
        </mxCell>
        <mxCell id="92yAruHw1jOLMELrqUtF-28" value="" style="html=1;points=[[0,0,0,0,5],[0,1,0,0,-5],[1,0,0,0,5],[1,1,0,0,-5]];perimeter=orthogonalPerimeter;outlineConnect=0;targetShapes=umlLifeline;portConstraint=eastwest;newEdgeStyle={&quot;curved&quot;:0,&quot;rounded&quot;:0};" vertex="1" parent="92yAruHw1jOLMELrqUtF-26">
          <mxGeometry x="46" y="1150" width="10" height="450" as="geometry" />
        </mxCell>
        <mxCell id="92yAruHw1jOLMELrqUtF-29" value="" style="html=1;points=[[0,0,0,0,5],[0,1,0,0,-5],[1,0,0,0,5],[1,1,0,0,-5]];perimeter=orthogonalPerimeter;outlineConnect=0;targetShapes=umlLifeline;portConstraint=eastwest;newEdgeStyle={&quot;curved&quot;:0,&quot;rounded&quot;:0};" vertex="1" parent="92yAruHw1jOLMELrqUtF-26">
          <mxGeometry x="51" y="1337" width="10" height="20" as="geometry" />
        </mxCell>
        <mxCell id="92yAruHw1jOLMELrqUtF-30" value="Send notification to all MISAIDs from message&lt;br&gt;of taxcode/tenant" style="html=1;align=left;spacingLeft=2;endArrow=block;rounded=0;edgeStyle=orthogonalEdgeStyle;curved=0;rounded=0;" edge="1" parent="92yAruHw1jOLMELrqUtF-26" target="92yAruHw1jOLMELrqUtF-29">
          <mxGeometry x="-0.0021" relative="1" as="geometry">
            <mxPoint x="56" y="1327.0000000000002" as="sourcePoint" />
            <Array as="points">
              <mxPoint x="86" y="1327" />
              <mxPoint x="86" y="1337" />
            </Array>
            <mxPoint as="offset" />
          </mxGeometry>
        </mxCell>
        <mxCell id="92yAruHw1jOLMELrqUtF-31" value="" style="html=1;points=[[0,0,0,0,5],[0,1,0,0,-5],[1,0,0,0,5],[1,1,0,0,-5]];perimeter=orthogonalPerimeter;outlineConnect=0;targetShapes=umlLifeline;portConstraint=eastwest;newEdgeStyle={&quot;curved&quot;:0,&quot;rounded&quot;:0};" vertex="1" parent="92yAruHw1jOLMELrqUtF-26">
          <mxGeometry x="51" y="1452" width="10" height="20" as="geometry" />
        </mxCell>
        <mxCell id="92yAruHw1jOLMELrqUtF-32" value="Send notification to all users of taxcode/tenant&lt;br&gt;from message" style="html=1;align=left;spacingLeft=2;endArrow=block;rounded=0;edgeStyle=orthogonalEdgeStyle;curved=0;rounded=0;" edge="1" parent="92yAruHw1jOLMELrqUtF-26" target="92yAruHw1jOLMELrqUtF-31">
          <mxGeometry relative="1" as="geometry">
            <mxPoint x="56" y="1442" as="sourcePoint" />
            <Array as="points">
              <mxPoint x="86" y="1442" />
              <mxPoint x="86" y="1452" />
              <mxPoint x="56" y="1452" />
            </Array>
          </mxGeometry>
        </mxCell>
        <mxCell id="92yAruHw1jOLMELrqUtF-33" value="" style="html=1;points=[[0,0,0,0,5],[0,1,0,0,-5],[1,0,0,0,5],[1,1,0,0,-5]];perimeter=orthogonalPerimeter;outlineConnect=0;targetShapes=umlLifeline;portConstraint=eastwest;newEdgeStyle={&quot;curved&quot;:0,&quot;rounded&quot;:0};" vertex="1" parent="92yAruHw1jOLMELrqUtF-26">
          <mxGeometry x="51" y="1230" width="10" height="20" as="geometry" />
        </mxCell>
        <mxCell id="92yAruHw1jOLMELrqUtF-34" value="Create custom notification message for Admin and License Owner" style="html=1;align=left;spacingLeft=2;endArrow=block;rounded=0;edgeStyle=orthogonalEdgeStyle;curved=0;rounded=0;" edge="1" parent="92yAruHw1jOLMELrqUtF-26" source="92yAruHw1jOLMELrqUtF-28" target="92yAruHw1jOLMELrqUtF-33">
          <mxGeometry x="-0.0021" relative="1" as="geometry">
            <mxPoint x="56" y="1220.0000000000002" as="sourcePoint" />
            <Array as="points">
              <mxPoint x="86" y="1220" />
              <mxPoint x="86" y="1230" />
            </Array>
            <mxPoint as="offset" />
          </mxGeometry>
        </mxCell>
        <mxCell id="92yAruHw1jOLMELrqUtF-74" value="" style="html=1;points=[[0,0,0,0,5],[0,1,0,0,-5],[1,0,0,0,5],[1,1,0,0,-5]];perimeter=orthogonalPerimeter;outlineConnect=0;targetShapes=umlLifeline;portConstraint=eastwest;newEdgeStyle={&quot;curved&quot;:0,&quot;rounded&quot;:0};" vertex="1" parent="92yAruHw1jOLMELrqUtF-26">
          <mxGeometry x="46" y="403" width="10" height="30" as="geometry" />
        </mxCell>
        <mxCell id="92yAruHw1jOLMELrqUtF-35" value="" style="html=1;verticalAlign=bottom;endArrow=open;dashed=1;endSize=8;curved=0;rounded=0;" edge="1" parent="1" source="92yAruHw1jOLMELrqUtF-20" target="92yAruHw1jOLMELrqUtF-27">
          <mxGeometry relative="1" as="geometry">
            <mxPoint x="744" y="235" as="targetPoint" />
            <Array as="points">
              <mxPoint x="919" y="180" />
            </Array>
          </mxGeometry>
        </mxCell>
        <mxCell id="92yAruHw1jOLMELrqUtF-36" value="Subscribe &lt;b&gt;TOPIC-3&lt;/b&gt;" style="html=1;verticalAlign=bottom;endArrow=block;curved=0;rounded=0;" edge="1" parent="1" source="92yAruHw1jOLMELrqUtF-27" target="92yAruHw1jOLMELrqUtF-20">
          <mxGeometry relative="1" as="geometry">
            <mxPoint x="744" y="165" as="sourcePoint" />
            <Array as="points">
              <mxPoint x="919" y="160" />
            </Array>
          </mxGeometry>
        </mxCell>
        <mxCell id="92yAruHw1jOLMELrqUtF-37" value="send license status to &lt;b&gt;TOPIC-2&lt;/b&gt;" style="html=1;verticalAlign=bottom;startArrow=none;endArrow=block;startSize=8;curved=0;rounded=0;startFill=0;" edge="1" parent="1" target="92yAruHw1jOLMELrqUtF-18" source="92yAruHw1jOLMELrqUtF-3">
          <mxGeometry x="-0.0007" relative="1" as="geometry">
            <mxPoint x="125" y="678" as="sourcePoint" />
            <Array as="points" />
            <mxPoint as="offset" />
          </mxGeometry>
        </mxCell>
        <mxCell id="92yAruHw1jOLMELrqUtF-38" value="Get message from &lt;b&gt;TOPIC-2&lt;/b&gt;" style="html=1;verticalAlign=bottom;endArrow=block;curved=0;rounded=0;" edge="1" parent="1" source="92yAruHw1jOLMELrqUtF-10" target="92yAruHw1jOLMELrqUtF-21">
          <mxGeometry relative="1" as="geometry">
            <mxPoint x="695" y="938" as="sourcePoint" />
            <Array as="points">
              <mxPoint x="670" y="923" />
            </Array>
          </mxGeometry>
        </mxCell>
        <mxCell id="92yAruHw1jOLMELrqUtF-39" value="" style="html=1;verticalAlign=bottom;endArrow=open;dashed=1;endSize=8;curved=0;rounded=0;" edge="1" parent="1" source="92yAruHw1jOLMELrqUtF-21" target="92yAruHw1jOLMELrqUtF-10">
          <mxGeometry relative="1" as="geometry">
            <mxPoint x="555" y="942.8" as="targetPoint" />
            <mxPoint x="765" y="942.8" as="sourcePoint" />
            <Array as="points">
              <mxPoint x="660" y="943" />
            </Array>
          </mxGeometry>
        </mxCell>
        <mxCell id="92yAruHw1jOLMELrqUtF-40" value="send message to &lt;b&gt;TOPIC-3&lt;/b&gt;" style="html=1;verticalAlign=bottom;startArrow=none;endArrow=block;startSize=8;curved=0;rounded=0;startFill=0;" edge="1" parent="1" target="92yAruHw1jOLMELrqUtF-22" source="92yAruHw1jOLMELrqUtF-10">
          <mxGeometry x="-0.0007" relative="1" as="geometry">
            <mxPoint x="560" y="1070" as="sourcePoint" />
            <Array as="points">
              <mxPoint x="570" y="1083" />
            </Array>
            <mxPoint as="offset" />
            <mxPoint x="819" y="1073" as="targetPoint" />
          </mxGeometry>
        </mxCell>
        <mxCell id="92yAruHw1jOLMELrqUtF-41" value="Get message from &lt;b&gt;TOPIC-3&lt;/b&gt;" style="html=1;verticalAlign=bottom;endArrow=block;curved=0;rounded=0;" edge="1" parent="1" source="92yAruHw1jOLMELrqUtF-28" target="92yAruHw1jOLMELrqUtF-23">
          <mxGeometry relative="1" as="geometry">
            <mxPoint x="895" y="1205" as="sourcePoint" />
            <Array as="points">
              <mxPoint x="920" y="1200" />
            </Array>
          </mxGeometry>
        </mxCell>
        <mxCell id="92yAruHw1jOLMELrqUtF-42" value="" style="html=1;verticalAlign=bottom;endArrow=open;dashed=1;endSize=8;curved=0;rounded=0;" edge="1" parent="1" source="92yAruHw1jOLMELrqUtF-23" target="92yAruHw1jOLMELrqUtF-28">
          <mxGeometry relative="1" as="geometry">
            <mxPoint x="895" y="1275" as="targetPoint" />
            <Array as="points">
              <mxPoint x="920" y="1220" />
            </Array>
          </mxGeometry>
        </mxCell>
        <mxCell id="92yAruHw1jOLMELrqUtF-43" value="alt" style="shape=umlFrame;whiteSpace=wrap;html=1;pointerEvents=0;" vertex="1" parent="1">
          <mxGeometry x="920" y="1320" width="430" height="100" as="geometry" />
        </mxCell>
        <mxCell id="92yAruHw1jOLMELrqUtF-44" value="alt" style="shape=umlFrame;whiteSpace=wrap;html=1;pointerEvents=0;" vertex="1" parent="1">
          <mxGeometry x="920" y="1440" width="430" height="99" as="geometry" />
        </mxCell>
        <mxCell id="92yAruHw1jOLMELrqUtF-45" value="[LICENSE OF ANOTHER APP]" style="text;html=1;align=center;verticalAlign=middle;resizable=0;points=[];autosize=1;strokeColor=none;fillColor=default;" vertex="1" parent="1">
          <mxGeometry x="981" y="1321" width="190" height="30" as="geometry" />
        </mxCell>
        <mxCell id="92yAruHw1jOLMELrqUtF-46" value="[LICENSE OF CURRENT APP]" style="text;html=1;align=center;verticalAlign=middle;resizable=0;points=[];autosize=1;strokeColor=none;fillColor=default;" vertex="1" parent="1">
          <mxGeometry x="981" y="1441" width="190" height="30" as="geometry" />
        </mxCell>
        <mxCell id="92yAruHw1jOLMELrqUtF-53" value="SUMAN" style="shape=umlLifeline;perimeter=lifelinePerimeter;whiteSpace=wrap;html=1;container=1;dropTarget=0;collapsible=0;recursiveResize=0;outlineConnect=0;portConstraint=eastwest;newEdgeStyle={&quot;curved&quot;:0,&quot;rounded&quot;:0};" vertex="1" parent="1">
          <mxGeometry x="290" y="40" width="100" height="1730" as="geometry" />
        </mxCell>
        <mxCell id="92yAruHw1jOLMELrqUtF-54" value="" style="html=1;points=[[0,0,0,0,5],[0,1,0,0,-5],[1,0,0,0,5],[1,1,0,0,-5]];perimeter=orthogonalPerimeter;outlineConnect=0;targetShapes=umlLifeline;portConstraint=eastwest;newEdgeStyle={&quot;curved&quot;:0,&quot;rounded&quot;:0};" vertex="1" parent="92yAruHw1jOLMELrqUtF-53">
          <mxGeometry x="45" y="210" width="10" height="70" as="geometry" />
        </mxCell>
        <mxCell id="92yAruHw1jOLMELrqUtF-58" value="" style="html=1;points=[[0,0,0,0,5],[0,1,0,0,-5],[1,0,0,0,5],[1,1,0,0,-5]];perimeter=orthogonalPerimeter;outlineConnect=0;targetShapes=umlLifeline;portConstraint=eastwest;newEdgeStyle={&quot;curved&quot;:0,&quot;rounded&quot;:0};" vertex="1" parent="92yAruHw1jOLMELrqUtF-53">
          <mxGeometry x="50" y="230" width="10" height="20" as="geometry" />
        </mxCell>
        <mxCell id="92yAruHw1jOLMELrqUtF-59" value="Get expired licenses" style="html=1;align=left;spacingLeft=2;endArrow=block;rounded=0;edgeStyle=orthogonalEdgeStyle;curved=0;rounded=0;" edge="1" target="92yAruHw1jOLMELrqUtF-58" parent="92yAruHw1jOLMELrqUtF-53">
          <mxGeometry relative="1" as="geometry">
            <mxPoint x="55" y="220" as="sourcePoint" />
            <Array as="points">
              <mxPoint x="85" y="220" />
              <mxPoint x="85" y="230" />
              <mxPoint x="55" y="230" />
            </Array>
          </mxGeometry>
        </mxCell>
        <mxCell id="92yAruHw1jOLMELrqUtF-56" value="send license status to&amp;nbsp;&lt;b&gt;TOPIC-1&lt;/b&gt;" style="html=1;verticalAlign=bottom;endArrow=block;curved=0;rounded=0;entryX=0;entryY=0;entryDx=0;entryDy=5;" edge="1" target="92yAruHw1jOLMELrqUtF-55" parent="1">
          <mxGeometry relative="1" as="geometry">
            <mxPoint x="345" y="309" as="sourcePoint" />
          </mxGeometry>
        </mxCell>
        <mxCell id="92yAruHw1jOLMELrqUtF-63" value="" style="html=1;points=[[0,0,0,0,5],[0,1,0,0,-5],[1,0,0,0,5],[1,1,0,0,-5]];perimeter=orthogonalPerimeter;outlineConnect=0;targetShapes=umlLifeline;portConstraint=eastwest;newEdgeStyle={&quot;curved&quot;:0,&quot;rounded&quot;:0};" vertex="1" parent="1">
          <mxGeometry x="550" y="521" width="10" height="20" as="geometry" />
        </mxCell>
        <mxCell id="92yAruHw1jOLMELrqUtF-64" value="Get owners of licenses" style="html=1;align=left;spacingLeft=2;endArrow=block;rounded=0;edgeStyle=orthogonalEdgeStyle;curved=0;rounded=0;" edge="1" parent="1" target="92yAruHw1jOLMELrqUtF-63">
          <mxGeometry relative="1" as="geometry">
            <mxPoint x="555" y="511" as="sourcePoint" />
            <Array as="points">
              <mxPoint x="585" y="511" />
              <mxPoint x="585" y="521" />
            </Array>
          </mxGeometry>
        </mxCell>
        <mxCell id="92yAruHw1jOLMELrqUtF-65" value="" style="html=1;points=[[0,0,0,0,5],[0,1,0,0,-5],[1,0,0,0,5],[1,1,0,0,-5]];perimeter=orthogonalPerimeter;outlineConnect=0;targetShapes=umlLifeline;portConstraint=eastwest;newEdgeStyle={&quot;curved&quot;:0,&quot;rounded&quot;:0};" vertex="1" parent="1">
          <mxGeometry x="550" y="567" width="10" height="20" as="geometry" />
        </mxCell>
        <mxCell id="92yAruHw1jOLMELrqUtF-66" value="Add missing informations to message" style="html=1;align=left;spacingLeft=2;endArrow=block;rounded=0;edgeStyle=orthogonalEdgeStyle;curved=0;rounded=0;" edge="1" parent="1" target="92yAruHw1jOLMELrqUtF-65">
          <mxGeometry relative="1" as="geometry">
            <mxPoint x="555" y="557" as="sourcePoint" />
            <Array as="points">
              <mxPoint x="585" y="557" />
              <mxPoint x="585" y="567" />
            </Array>
          </mxGeometry>
        </mxCell>
        <mxCell id="92yAruHw1jOLMELrqUtF-69" value="Get message from &lt;b&gt;TOPIC-2&lt;/b&gt;" style="html=1;verticalAlign=bottom;endArrow=block;curved=0;rounded=0;" edge="1" parent="1" source="92yAruHw1jOLMELrqUtF-62" target="92yAruHw1jOLMELrqUtF-67">
          <mxGeometry relative="1" as="geometry">
            <mxPoint x="695" y="397" as="sourcePoint" />
            <Array as="points">
              <mxPoint x="670" y="382" />
            </Array>
          </mxGeometry>
        </mxCell>
        <mxCell id="92yAruHw1jOLMELrqUtF-70" value="" style="html=1;verticalAlign=bottom;endArrow=open;dashed=1;endSize=8;curved=0;rounded=0;" edge="1" parent="1" source="92yAruHw1jOLMELrqUtF-67" target="92yAruHw1jOLMELrqUtF-62">
          <mxGeometry relative="1" as="geometry">
            <mxPoint x="555" y="401.79999999999995" as="targetPoint" />
            <mxPoint x="765" y="401.79999999999995" as="sourcePoint" />
            <Array as="points">
              <mxPoint x="660" y="402" />
            </Array>
          </mxGeometry>
        </mxCell>
        <mxCell id="92yAruHw1jOLMELrqUtF-71" value="send message to &lt;b&gt;TOPIC-3&lt;/b&gt;" style="html=1;verticalAlign=bottom;startArrow=none;endArrow=block;startSize=8;curved=0;rounded=0;startFill=0;" edge="1" parent="1" target="92yAruHw1jOLMELrqUtF-68">
          <mxGeometry x="-0.0007" relative="1" as="geometry">
            <mxPoint x="555" y="615" as="sourcePoint" />
            <Array as="points">
              <mxPoint x="570" y="615" />
            </Array>
            <mxPoint as="offset" />
            <mxPoint x="819" y="605" as="targetPoint" />
          </mxGeometry>
        </mxCell>
        <mxCell id="92yAruHw1jOLMELrqUtF-75" value="Get all MISAIDs having access to each tenants/taxcode" style="html=1;verticalAlign=bottom;endArrow=block;curved=0;rounded=0;entryX=0;entryY=0;entryDx=0;entryDy=5;" edge="1" target="92yAruHw1jOLMELrqUtF-74" parent="1">
          <mxGeometry relative="1" as="geometry">
            <mxPoint x="555" y="448" as="sourcePoint" />
          </mxGeometry>
        </mxCell>
        <mxCell id="92yAruHw1jOLMELrqUtF-76" value="" style="html=1;verticalAlign=bottom;endArrow=open;dashed=1;endSize=8;curved=0;rounded=0;" edge="1" source="92yAruHw1jOLMELrqUtF-74" parent="1">
          <mxGeometry relative="1" as="geometry">
            <mxPoint x="555" y="473" as="targetPoint" />
            <Array as="points">
              <mxPoint x="780" y="473" />
            </Array>
          </mxGeometry>
        </mxCell>
      </root>
    </mxGraphModel>
  </diagram>
</mxfile>
